<?xml version="1.0" standalone="no"?>
<!DOCTYPE svg PUBLIC "-//W3C//DTD SVG 20010904//EN"
 "http://www.w3.org/TR/2001/REC-SVG-20010904/DTD/svg10.dtd">
<svg version="1.0" xmlns="http://www.w3.org/2000/svg"
 width="366.000000pt" height="388.000000pt" viewBox="0 0 366.000000 388.000000"
 preserveAspectRatio="xMidYMid meet">

<g transform="translate(0.000000,388.000000) scale(0.100000,-0.100000)"
fill="#000000" stroke="none">
<path d="M880 3345 c-270 -46 -491 -222 -570 -451 -56 -162 -45 -341 31 -494
78 -158 239 -290 402 -331 69 -17 257 -6 327 19 62 22 165 72 195 96 19 15 19
15 -15 16 -114 1 -325 23 -388 40 -254 70 -376 234 -359 481 7 109 45 186 130
266 111 103 230 145 417 145 324 0 486 -120 640 -472 90 -207 136 -283 233
-387 157 -168 361 -246 642 -245 117 0 156 4 237 25 149 39 246 94 348 196
131 133 184 259 183 437 -2 184 -60 323 -188 450 -68 68 -98 90 -186 133 -159
78 -332 104 -527 82 -196 -23 -337 -85 -480 -212 -91 -80 -90 -72 -26 -193 31
-58 57 -106 58 -106 2 0 24 27 49 60 100 128 255 211 430 229 180 18 334 -12
453 -90 76 -49 123 -103 161 -185 25 -53 28 -70 28 -169 0 -99 -3 -116 -27
-168 -59 -126 -201 -222 -372 -252 -249 -43 -481 16 -612 158 -75 80 -106 134
-199 337 -109 236 -138 285 -224 370 -81 81 -201 152 -311 184 -143 43 -338
56 -480 31z"/>
<path d="M572 1998 c18 -23 62 -74 98 -113 510 -553 695 -782 883 -1091 59
-98 177 -330 222 -437 15 -37 31 -64 35 -60 4 4 26 53 50 108 141 329 316 610
561 900 87 104 229 263 409 461 164 179 246 274 236 274 -4 0 -24 -9 -46 -20
-51 -26 -199 -69 -278 -80 -61 -8 -65 -11 -126 -77 -379 -410 -609 -702 -756
-960 -29 -51 -54 -93 -55 -93 -2 0 -31 48 -65 108 -142 244 -408 582 -734 935
l-99 107 -61 0 c-74 0 -164 21 -241 55 -32 14 -60 25 -62 25 -3 0 10 -19 29
-42z"/>
</g>
</svg>
